<svg xmlns="http://www.w3.org/2000/svg" viewBox="0 0 64 64" width="64" height="64">
  <defs>
    <linearGradient id="g" x1="0" y1="0" x2="1" y2="1">
      <stop offset="0%" stop-color="#818cf8"/>
      <stop offset="100%" stop-color="#a78bfa"/>
    </linearGradient>
  </defs>
  <rect width="64" height="64" rx="16" fill="#0d1220"/>
  <path fill="url(#g)" d="M32 13c-10.5 0-19 6.9-19 15.4 0 4.8 2.7 9 7 11.8l-1.7 7.5a1.4 1.4 0 0 0 2.1 1.5l8.4-5a23 23 0 0 0 3.2.2c10.5 0 19-6.9 19-15.4S42.5 13 32 13Z"/>
  <circle cx="24" cy="28" r="2.6" fill="#0d1220"/>
  <circle cx="32" cy="28" r="2.6" fill="#0d1220"/>
  <circle cx="40" cy="28" r="2.6" fill="#0d1220"/>
</svg>
